<?xml version="1.0" standalone="no"?>
<!DOCTYPE svg PUBLIC "-//W3C//DTD SVG 20010904//EN"
 "http://www.w3.org/TR/2001/REC-SVG-20010904/DTD/svg10.dtd">
<svg version="1.0" xmlns="http://www.w3.org/2000/svg"
 width="449.000000pt" height="449.000000pt" viewBox="0 0 449.000000 449.000000"
 preserveAspectRatio="xMidYMid meet">
<metadata>
Created by potrace 1.14, written by Peter Selinger 2001-2017
</metadata>
<g transform="translate(0.000000,449.000000) scale(0.100000,-0.100000)"
fill="#000000" stroke="none">
<path d="M2107 3834 c-1 -1 -35 -5 -76 -9 -41 -4 -84 -9 -95 -11 -12 -2 -39
-7 -61 -10 -45 -5 -274 -63 -290 -72 -5 -4 -15 -7 -20 -8 -6 -1 -31 -10 -55
-21 -25 -11 -61 -26 -80 -34 -47 -18 -238 -117 -250 -129 -3 -3 -41 -29 -85
-57 -44 -29 -97 -67 -117 -85 -20 -18 -48 -41 -61 -51 -32 -23 -176 -171 -222
-227 -21 -25 -42 -48 -49 -52 -6 -4 -7 -8 -1 -8 6 0 2 -5 -7 -11 -10 -5 -18
-16 -18 -24 0 -7 -4 -15 -9 -17 -12 -4 -111 -154 -111 -167 0 -6 -5 -11 -11
-11 -5 0 -8 -3 -5 -8 2 -4 -9 -26 -25 -50 -16 -23 -29 -44 -29 -47 0 -2 -10
-25 -22 -52 -11 -26 -22 -54 -24 -62 -1 -8 -6 -17 -11 -20 -4 -3 -9 -10 -10
-16 -1 -5 -14 -46 -29 -90 -24 -70 -30 -90 -35 -110 0 -2 -7 -28 -15 -57 -8
-29 -17 -64 -19 -78 -3 -14 -8 -41 -11 -60 -8 -41 -9 -46 -20 -130 -13 -107
-9 -490 6 -490 3 0 5 -12 5 -26 -2 -27 25 -164 46 -236 7 -24 14 -50 15 -58
13 -79 156 -389 234 -508 47 -71 30 -68 190 -27 58 15 112 29 120 30 8 1 35 8
60 14 25 7 52 14 60 16 8 2 44 11 80 20 36 10 75 19 87 20 12 2 26 6 31 9 5 3
22 8 38 11 16 3 81 19 144 36 63 16 151 32 195 35 44 3 86 6 92 6 7 1 15 9 18
18 5 16 8 17 133 19 55 1 65 4 69 21 3 12 18 23 37 28 29 8 31 12 34 57 2 27
7 52 12 55 4 3 72 4 149 3 101 -1 141 2 142 10 1 7 2 33 3 59 0 25 4 49 7 52
9 9 489 14 495 5 2 -4 5 -44 6 -88 l3 -82 193 1 c107 1 196 0 198 -3 2 -2 7
-26 10 -53 4 -27 11 -54 16 -61 5 -6 39 -27 76 -45 l67 -32 175 -1 c191 0 158
7 370 -76 l75 -30 20 26 c21 25 99 176 130 250 9 22 21 49 26 60 13 29 68 201
74 233 4 15 8 41 11 57 3 17 7 37 10 45 3 8 8 33 10 55 3 22 7 46 10 54 22 67
22 438 0 566 -3 17 -8 45 -11 63 -11 73 -16 98 -21 112 -3 8 -8 26 -10 40 -3
14 -17 61 -31 105 -15 44 -28 85 -29 90 -14 64 -165 363 -206 409 -10 11 -18
25 -18 32 0 7 -3 14 -7 16 -5 2 -28 30 -53 63 -59 79 -56 76 -126 150 -33 36
-58 67 -56 70 3 3 0 5 -6 5 -7 0 -24 13 -39 28 -16 16 -59 54 -98 86 -101 83
-104 86 -114 86 -5 0 -11 4 -13 8 -3 9 -96 72 -104 72 -3 0 -19 9 -35 21 -27
19 -152 87 -164 89 -3 1 -31 12 -62 27 -32 14 -62 26 -68 27 -5 1 -14 4 -20 7
-5 4 -41 16 -80 28 -38 12 -83 26 -100 31 -16 5 -46 12 -65 15 -19 3 -42 8
-50 10 -37 10 -128 24 -205 31 -65 5 -314 12 -318 8z"/>
</g>
</svg>
